<svg width="46" height="46" viewBox="0 0 46 46" fill="none" xmlns="http://www.w3.org/2000/svg">
<g clip-path="url(#clip0)">
<path d="M23.0014 -1.52588e-05C10.321 -1.52588e-05 0.00341797 10.3179 0.00341797 23C0.00341797 35.6815 10.3209 46 23.0014 46C35.6834 46 46.0001 35.6815 46.0001 23C46.0001 10.3179 35.6834 -1.52588e-05 23.0014 -1.52588e-05ZM37.0387 30.6125C36.7102 30.9403 36.2798 31.1058 35.8497 31.1058C35.4188 31.1058 34.9885 30.9403 34.6599 30.6125L23.0014 18.9548L11.3441 30.6125C10.6869 31.2695 9.62042 31.2695 8.96321 30.6125C8.3056 29.9554 8.3056 28.89 8.96321 28.2328L21.8115 15.386C22.4696 14.7289 23.5328 14.7289 24.1896 15.386L37.0379 28.2328C37.6959 28.89 37.6959 29.9554 37.0387 30.6125Z" fill="white"/>
</g>
<defs>
<clipPath id="clip0">
<rect width="46" height="46" fill="white"/>
</clipPath>
</defs>
</svg>
