<svg width="35" height="35" viewBox="0 0 35 35" fill="none" xmlns="http://www.w3.org/2000/svg">
<path d="M18.75 0H16.25C7.27968 0.0103271 0.0103271 7.27968 0 16.25C0 16.9404 0.559643 17.5 1.25002 17.5H33.75C34.4404 17.5 35 16.9404 35 16.25C34.9897 7.27968 27.7203 0.0103271 18.75 0ZM2.55622 15C3.21108 7.92385 9.14355 2.50847 16.2499 2.49997H18.75C25.8564 2.50847 31.7889 7.92377 32.4437 15H2.55622Z" fill="white"/>
<path d="M33.75 24.9999H28.75C28.4795 24.9999 28.2163 25.0877 28 25.2499L23.7499 28.4374L19.4999 25.2499C19.2836 25.0876 19.0204 24.9999 18.7499 24.9999H1.25002C0.559643 24.9999 0 25.5596 0 26.25V28.7499C0.00410156 32.2 2.7999 34.9958 6.24997 34.9999H28.75C32.2 34.9958 34.9958 32.2 34.9999 28.7499V26.25C35 25.5596 34.4404 24.9999 33.75 24.9999ZM32.5 28.7499C32.5 30.821 30.821 32.4999 28.75 32.4999H6.24997C4.1789 32.4999 2.49997 30.821 2.49997 28.7499V27.4999H18.3337L22.9999 30.9999C23.4444 31.3333 24.0555 31.3333 24.4999 30.9999L29.1662 27.4999H32.5V28.7499Z" fill="white"/>
<path d="M33.75 20H1.25002C0.559643 20 0 20.5596 0 21.25C0 21.9403 0.559643 22.5 1.25002 22.5H33.75C34.4404 22.5 35 21.9403 35 21.25C35 20.5596 34.4404 20 33.75 20Z" fill="white"/>
<path d="M11.25 7.5C10.5596 7.5 10 8.05964 10 8.75002V10C10 10.6904 10.5596 11.2501 11.25 11.2501C11.9404 11.2501 12.5001 10.6904 12.5001 10V8.75002C12.5001 8.05964 11.9404 7.5 11.25 7.5Z" fill="white"/>
<path d="M17.5 7.5C16.8096 7.5 16.25 8.05964 16.25 8.75002V10C16.25 10.6904 16.8096 11.2501 17.5 11.2501C18.1904 11.2501 18.7501 10.6904 18.7501 9.99997V8.74995C18.7501 8.05964 18.1904 7.5 17.5 7.5Z" fill="white"/>
<path d="M23.75 7.5C23.0596 7.5 22.5 8.05964 22.5 8.75002V10C22.5 10.6904 23.0596 11.2501 23.75 11.2501C24.4404 11.2501 25.0001 10.6904 25.0001 10V8.75002C25 8.05964 24.4403 7.5 23.75 7.5Z" fill="white"/>
</svg>
