<svg width="90" height="90" viewBox="0 0 90 90" fill="none" xmlns="http://www.w3.org/2000/svg">
<g filter="url(#filter0_d)">
<path d="M45 70C58.8071 70 70 58.8071 70 45C70 31.1929 58.8071 20 45 20C31.1929 20 20 31.1929 20 45C20 58.8071 31.1929 70 45 70Z" fill="white"/>
<path d="M36.2531 37.5017C35.9156 37.1642 35.9156 36.6025 36.2531 36.2531C36.6025 35.9156 37.1524 35.9156 37.5017 36.2531L44.994 43.758L52.4988 36.2531C52.8364 35.9156 53.3981 35.9156 53.7348 36.2531C54.0842 36.6025 54.0842 37.165 53.7348 37.5017L46.2426 44.9948L53.7348 52.4996C54.0842 52.8371 54.0842 53.3989 53.7348 53.7482C53.3973 54.0857 52.8356 54.0857 52.4988 53.7482L44.994 46.2434L37.5017 53.7482C37.1524 54.0857 36.6025 54.0857 36.2531 53.7482C35.9156 53.3989 35.9156 52.8364 36.2531 52.4996L43.7454 44.9948L36.2531 37.5017Z" fill="#1E201D"/>
</g>
<defs>
<filter id="filter0_d" x="0" y="0" width="90" height="90" filterUnits="userSpaceOnUse" color-interpolation-filters="sRGB">
<feFlood flood-opacity="0" result="BackgroundImageFix"/>
<feColorMatrix in="SourceAlpha" type="matrix" values="0 0 0 0 0 0 0 0 0 0 0 0 0 0 0 0 0 0 127 0"/>
<feOffset/>
<feGaussianBlur stdDeviation="10"/>
<feColorMatrix type="matrix" values="0 0 0 0 0 0 0 0 0 0 0 0 0 0 0 0 0 0 0.45 0"/>
<feBlend mode="normal" in2="BackgroundImageFix" result="effect1_dropShadow"/>
<feBlend mode="normal" in="SourceGraphic" in2="effect1_dropShadow" result="shape"/>
</filter>
</defs>
</svg>
