

<!-- <svg width="24" height="24" viewBox="0 0 25 24" fill="none" xmlns="http://www.w3.org/2000/svg">
<path d="M18.3381 9.22995C18.3381 13.3992 14.6723 16.9599 9.91907 16.9599C5.1658 16.9599 1.5 13.3992 1.5 9.22995C1.5 5.06071 5.1658 1.5 9.91907 1.5C14.6723 1.5 18.3381 5.06071 18.3381 9.22995Z" stroke="#CDC9C9" stroke-width="3"/>
<path d="M16.0595 15.022L23 21.7239" stroke="#CDC9C9" stroke-width="3" stroke-linecap="round"/>
</svg> -->


<svg width="27" height="26" viewBox="0 0 27 26" fill="none" xmlns="http://www.w3.org/2000/svg">
<line x1="19.1203" y1="18.0653" x2="24.347" y2="23.6241" stroke="#9C9C9C" stroke-width="3" stroke-linecap="round"/>
<path d="M19.5 11C19.5 16.3132 15.4056 20.5 10.5 20.5C5.59443 20.5 1.5 16.3132 1.5 11C1.5 5.68677 5.59443 1.5 10.5 1.5C15.4056 1.5 19.5 5.68677 19.5 11Z" stroke="#9D9D9D" stroke-width="3"/>
</svg>
