<svg width="18" height="16" viewBox="0 0 18 16" fill="none" xmlns="http://www.w3.org/2000/svg">
<path d="M9.3836 15.6387C3.45141 15.6387 1.86642 10.1419 2.58287 6.54041C2.61406 6.38366 2.84521 6.3385 2.94593 6.47012C3.25784 6.87762 3.5354 7.46622 3.99528 7.41512C4.68648 7.33831 5.16535 1.91681 9.26193 0.391343C9.39194 0.342936 9.52795 0.43478 9.51368 0.559405C9.31111 2.32606 10.5044 4.85528 12.6185 4.85528C13.8304 4.85528 14.6596 3.99553 15.074 3.13209C15.1999 2.86981 15.631 2.90287 15.7031 3.18072C16.4425 6.02703 18.419 15.6387 9.3836 15.6387Z" fill="#FF8F1F"/>
<path d="M7.30401 10.3383C7.44351 10.2342 7.65529 10.3057 7.68697 10.4652C7.76108 10.8384 8.00478 11.4798 8.80417 11.4798C9.76576 11.4798 10.4183 9.12778 10.5895 8.43606C10.6176 8.32225 10.7424 8.24497 10.8709 8.26818C13.274 8.7025 14.4424 15.6387 9.15865 15.6387C5.31213 15.6387 6.18355 11.175 7.30401 10.3383ZM13.8705 2.82668C13.9552 2.23787 12.746 3.84834 12.746 3.84834C12.746 3.84834 13.6679 4.2354 13.8705 2.82668ZM1.68629 11.608C1.71178 11.3573 1.349 10.6862 1.28477 10.9519C1.13103 11.5877 1.6608 11.8587 1.68629 11.608Z" fill="#FFB636"/>
<path d="M11.3618 10.8936C11.2717 10.5596 10.9485 11.3355 10.9891 11.6516C11.0297 11.9676 11.5773 11.6929 11.3618 10.8936Z" fill="#FFD469"/>
</svg>
