<svg width="18" height="27" viewBox="0 0 18 27" fill="none" xmlns="http://www.w3.org/2000/svg">
<path d="M14.9732 26.2132C14.5961 26.2141 14.2236 26.1532 13.8829 26.0348C13.5422 25.9164 13.2421 25.7437 13.0045 25.5292L0.814145 14.4367C0.442927 14.1059 0.23999 13.691 0.23999 13.2628C0.23999 12.8345 0.442927 12.4196 0.814145 12.0888L13.4336 0.996354C13.862 0.61881 14.4776 0.381386 15.145 0.336314C15.8124 0.291242 16.4769 0.442214 16.9923 0.756017C17.5077 1.06982 17.8318 1.52075 17.8934 2.00961C17.9549 2.49846 17.7488 2.9852 17.3204 3.36274L6.03859 13.272L16.9418 23.1813C17.2504 23.4526 17.4465 23.7831 17.5067 24.1335C17.567 24.4839 17.489 24.8397 17.2819 25.1586C17.0748 25.4776 16.7473 25.7464 16.3381 25.9333C15.929 26.1202 15.4553 26.2173 14.9732 26.2132Z" fill="black"/>
</svg>
